<svg data-v-423bf9ae="" xmlns="http://www.w3.org/2000/svg" viewBox="0 0 473.29979546853133 163" class="iconAbove"><!----><!----><!----><g data-v-423bf9ae="" id="e00fa77f-cfe7-4c8e-b079-3762bc5b6876" fill="white" transform="matrix(6.036216979508284,0,0,6.036216979508284,-2.535204774905395,87.78873571095662)"><path d="M3.74 12.46L3.74 12.46Q2.83 12.46 2.07 12.12L2.07 12.12L2.07 12.12Q1.32 11.77 0.87 11.10L0.87 11.10L0.87 11.10Q0.42 10.43 0.42 9.48L0.42 9.48L0.43 9.17L2.30 9.17L2.28 9.39L2.28 9.39Q2.28 10.09 2.69 10.51L2.69 10.51L2.69 10.51Q3.09 10.92 3.82 10.92L3.82 10.92L3.82 10.92Q4.56 10.92 4.92 10.59L4.92 10.59L4.92 10.59Q5.28 10.26 5.28 9.79L5.28 9.79L5.28 9.79Q5.28 9.31 5.03 9.01L5.03 9.01L5.03 9.01Q4.77 8.71 4.40 8.54L4.40 8.54L4.40 8.54Q4.03 8.37 3.36 8.15L3.36 8.15L3.36 8.15Q2.48 7.87 1.93 7.59L1.93 7.59L1.93 7.59Q1.39 7.31 1.00 6.73L1.00 6.73L1.00 6.73Q0.62 6.16 0.62 5.21L0.62 5.21L0.62 5.21Q0.62 4.34 1.05 3.73L1.05 3.73L1.05 3.73Q1.48 3.12 2.21 2.82L2.21 2.82L2.21 2.82Q2.94 2.52 3.82 2.52L3.82 2.52L3.82 2.52Q5.19 2.52 6.07 3.23L6.07 3.23L6.07 3.23Q6.94 3.93 6.94 5.35L6.94 5.35L6.94 5.52L5.11 5.52L5.11 5.39L5.11 5.39Q5.11 4.77 4.76 4.42L4.76 4.42L4.76 4.42Q4.41 4.06 3.81 4.06L3.81 4.06L3.81 4.06Q3.18 4.06 2.82 4.35L2.82 4.35L2.82 4.35Q2.46 4.63 2.46 5.08L2.46 5.08L2.46 5.08Q2.46 5.47 2.70 5.73L2.70 5.73L2.70 5.73Q2.94 5.98 3.30 6.13L3.30 6.13L3.30 6.13Q3.65 6.29 4.28 6.48L4.28 6.48L4.28 6.48Q5.19 6.78 5.75 7.05L5.75 7.05L5.75 7.05Q6.31 7.32 6.72 7.90L6.72 7.90L6.72 7.90Q7.13 8.47 7.13 9.41L7.13 9.41L7.13 9.41Q7.13 10.99 6.22 11.72L6.22 11.72L6.22 11.72Q5.32 12.46 3.74 12.46L3.74 12.46ZM8.50 12.29L8.50 2.69L14.62 2.69L14.62 4.28L10.29 4.28L10.29 6.58L14 6.58L14 8.18L10.29 8.18L10.29 10.70L14.70 10.70L14.70 12.29L8.50 12.29ZM17.93 12.29L17.93 4.28L15.55 4.28L15.55 2.69L22.11 2.69L22.11 4.28L19.73 4.28L19.73 12.29L17.93 12.29ZM26.63 12.46L26.63 12.46Q24.78 12.46 23.79 11.22L23.79 11.22L23.79 11.22Q22.81 9.98 22.81 7.49L22.81 7.49L22.81 7.49Q22.81 5.00 23.79 3.76L23.79 3.76L23.79 3.76Q24.78 2.52 26.63 2.52L26.63 2.52L26.63 2.52Q28.21 2.52 29.18 3.46L29.18 3.46L29.18 3.46Q30.16 4.40 30.16 6.26L30.16 6.26L28.32 6.26L28.32 6.26Q28.32 5.18 27.87 4.62L27.87 4.62L27.87 4.62Q27.41 4.06 26.63 4.06L26.63 4.06L26.63 4.06Q25.65 4.06 25.15 4.86L25.15 4.86L25.15 4.86Q24.65 5.67 24.65 7.14L24.65 7.14L24.65 7.84L24.65 7.84Q24.65 9.31 25.17 10.12L25.17 10.12L25.17 10.12Q25.68 10.92 26.68 10.92L26.68 10.92L26.68 10.92Q27.48 10.92 27.94 10.37L27.94 10.37L27.94 10.37Q28.41 9.81 28.41 8.74L28.41 8.74L30.16 8.74L30.16 8.74Q30.16 10.56 29.19 11.51L29.19 11.51L29.19 11.51Q28.22 12.46 26.63 12.46L26.63 12.46ZM35.08 12.46L35.08 12.46Q33.18 12.46 32.14 11.22L32.14 11.22L32.14 11.22Q31.09 9.98 31.09 7.49L31.09 7.49L31.09 7.49Q31.09 5.00 32.14 3.76L32.14 3.76L32.14 3.76Q33.18 2.52 35.08 2.52L35.08 2.52L35.08 2.52Q36.99 2.52 38.03 3.76L38.03 3.76L38.03 3.76Q39.07 5.00 39.07 7.49L39.07 7.49L39.07 7.49Q39.07 9.98 38.03 11.22L38.03 11.22L38.03 11.22Q36.99 12.46 35.08 12.46L35.08 12.46ZM35.08 10.92L35.08 10.92Q36.13 10.92 36.68 10.12L36.68 10.12L36.68 10.12Q37.23 9.31 37.23 7.84L37.23 7.84L37.23 7.14L37.23 7.14Q37.23 5.67 36.68 4.86L36.68 4.86L36.68 4.86Q36.13 4.06 35.08 4.06L35.08 4.06L35.08 4.06Q34.03 4.06 33.49 4.86L33.49 4.86L33.49 4.86Q32.94 5.67 32.94 7.14L32.94 7.14L32.94 7.84L32.94 7.84Q32.94 9.31 33.49 10.12L33.49 10.12L33.49 10.12Q34.03 10.92 35.08 10.92L35.08 10.92ZM43.69 12.46L43.69 12.46Q42.13 12.46 41.27 11.64L41.27 11.64L41.27 11.64Q40.40 10.82 40.40 9.28L40.40 9.28L40.40 2.69L42.20 2.69L42.20 9.23L42.20 9.23Q42.20 10.05 42.59 10.49L42.59 10.49L42.59 10.49Q42.98 10.92 43.69 10.92L43.69 10.92L43.69 10.92Q44.41 10.92 44.81 10.49L44.81 10.49L44.81 10.49Q45.21 10.05 45.21 9.23L45.21 9.23L45.21 2.69L47.00 2.69L47.00 9.28L47.00 9.28Q47.00 10.82 46.13 11.64L46.13 11.64L46.13 11.64Q45.26 12.46 43.69 12.46L43.69 12.46ZM48.68 12.29L48.68 2.69L50.26 2.69L53.23 7.98L53.23 7.98Q53.33 8.13 53.47 8.45L53.47 8.45L53.47 8.45Q53.62 8.76 53.66 8.88L53.66 8.88L53.70 8.83L53.69 8.04L53.69 2.69L55.29 2.69L55.29 12.29L53.69 12.29L50.72 7L50.72 7Q50.61 6.78 50.48 6.50L50.48 6.50L50.48 6.50Q50.34 6.22 50.29 6.10L50.29 6.10L50.23 6.15L50.23 6.15Q50.23 6.23 50.25 6.47L50.25 6.47L50.25 6.47Q50.26 6.71 50.26 6.94L50.26 6.94L50.26 12.29L48.68 12.29ZM58.74 12.29L58.74 4.28L56.36 4.28L56.36 2.69L62.92 2.69L62.92 4.28L60.54 4.28L60.54 12.29L58.74 12.29ZM63.98 12.29L63.98 2.69L70.10 2.69L70.10 4.28L65.77 4.28L65.77 6.58L69.48 6.58L69.48 8.18L65.77 8.18L65.77 10.70L70.18 10.70L70.18 12.29L63.98 12.29ZM71.64 12.29L71.64 2.69L75.66 2.69L75.66 2.69Q77.07 2.69 77.83 3.44L77.83 3.44L77.83 3.44Q78.60 4.20 78.60 5.43L78.60 5.43L78.60 5.43Q78.60 6.30 78.17 6.94L78.17 6.94L78.17 6.94Q77.74 7.59 76.99 7.90L76.99 7.90L78.83 12.29L76.89 12.29L75.29 8.29L73.43 8.29L73.43 12.29L71.64 12.29ZM73.43 6.71L75.40 6.71L75.40 6.71Q76.03 6.71 76.35 6.38L76.35 6.38L76.35 6.38Q76.66 6.05 76.66 5.43L76.66 5.43L76.66 5.43Q76.66 4.89 76.37 4.58L76.37 4.58L76.37 4.58Q76.08 4.28 75.47 4.28L75.47 4.28L73.43 4.28L73.43 6.71Z"></path></g><!----><g data-v-423bf9ae="" id="f76caf13-9114-4979-8b90-c90d2546c0d5" transform="matrix(1.1821411356550966,0,0,1.1821411356550966,177.83998135396322,-13.134108083502738)" stroke="none" fill="white"><path d="M94.6 45.4c-.6-2.3-1.7-4.6-2.5-5.7-.3-.5-.8-1.2-1.3-2-.6-.9-1.3-1.9-1.9-2.8-1.1-1.6-1.6-3.4-1.8-4-.2-.6-.2-1.4-.3-2.2v-.1c-.1-.8-.1-1.6-1-2.4-.9-.8-2-.7-2.2-.7 0 0-8.7-.3-8.8-.3-.5.1-.8.4-1 .6-.3.4-.3.9-.3 1.1l-.1 4c0 .1 0 .7.4 1.1.3.3.7.4.9.4 0 0 0 .1.1.1h.2c0-1.4 0-3.2.1-4.7 0 0 0-.6.3-.9.2-.2.4-.3.7-.3h1.2c.1 0 .2.1.2.2s-.1.3-.2.3h-1.2c-.2 0-.3.1-.4.2-.2.2-.2.5-.2.5 0 1.1 0 4.4-.1 5.3.1.1.1.2.2.2.4.3.8.4.8.4h.2v-4.2s0-.6.3-.9c.2-.2.4-.3.7-.3h1.2c.1 0 .2.2.2.3 0 .1-.1.2-.2.2h-1.2c-.2 0-.3 0-.4.1-.2.2-.2.5-.2.5 0 1 0 4.1-.1 5 0 0 0 .1.1.1.4.4.9.4 1 .4l3.1.1c.1 0 .5 0 .8-.3l.2-.2c.3-.8.4-1.2.2-2.2H79.4v.7c0 .1-.2.2-.3.2-.1 0-.3-.1-.3-.2v-1.6c0-.1.1-.2.3-.2.2 0 .2.3.2.3v.5h.8c1.6 0 2.6.1 3-.3.5-.4.4-1 .4-1.1l.1-1.6c0-.1.2-.2.3-.2.1 0 .3.1.3.2v1.6s0 .9-.6 1.4c-.2.2-.5.3-.8.3h-.1c0 .4.3 1.1-.3 2.4v.2c0 .2.1.5.1.7 0 .7-.1 1.9-.3 3-.1.8-.2 1.6-.3 2.3-.1 1.1-.1 2.6 0 3.8.5.5 1.2 1.3 1.7 2.2 0 .1 0 .2-.1.3h-.1c-.1 0-.1 0-.2-.1-.6-1.3-1.7-2.3-2.1-2.6-1-.6-2.2-1.1-3.7-1.1-1.7 0-2.9.5-3.8 1.1-.5.4-1.6 1.2-2.2 2.2 0 .1-.1.1-.2.1h-.1c-.1-.1-.1-.2-.1-.3.6-1 1.7-1.8 2.2-2.2-1-.8-3-1.9-6.1-1.9-1.3 0-2.4.2-3.3.6-1.2-1-2.5-2-3.7-2.7-.8.6-1.7 1.4-2 1.5-.2.1-.5.1-.9.1-1 0-2.5-.3-3.3-1-.6-.6-3-4.9-3-5.2v-3.3c0-.1.1-.2.3-.2.1 0 .2.1.2.3v3.2c0 .2 2.3 4.4 2.8 4.9 1 .9 3.3 1 3.7.8.3-.1 1.7-1.3 2.7-2.1 1.6-1.5 3.2-3.6 4.5-6 .1-.2.2-.6.3-1 .5-.5 1.1-1.3 1.7-2.5 1.9-4.1-.2-7.5-1.1-8.6-.6-1.1-1.5-2-2.7-2.6-.3-.2-.6-.3-1-.4-1.3-.8-2.9-1.2-4.5-1.2-5 0-9.1 4.1-9.1 9.1 0 .8.1 1 .3 1.8-1 2.1-3 5.2-5 6.2-4.9-.2-7.4 1.9-7.5 2-.1-.1-1.1-.8-1.6-1-2.7-1.5-5-1.6-6.3-1.4.3.6.8 1.9.8 3 0 .1-.1.2-.2.2h-.1c-.1 0-.1-.1-.1-.2-.1-1.2-.7-2.4-1-3 0 0-1.3-1.9-2.8-2.8-1.1-.8-2.2-.9-3.3-.9h-.1c-.4 0-1.9.3-3.1 1.1h-.2s-.1 0-.1-.1c-.1-.1 0-.2 0-.3.9-.6 1.8-1 2.5-1.1.7-1 1.5-2.3 1.9-3.3.3-.6.6-1.4.9-2.2.4-1.1.9-2.1 1.2-2.7.1-.2.3-.3.4-.5l.1-.2c-.1-1.1.7-2 .9-2.3l-.1-.1c-.3-.2-.5-.4-.5-.7-.3-.8.1-1.5.2-1.5l.8-1.4c.1-.1.2-.1.3 0 .1.1.2.2.2.3l-.8 1.4s-.4.5-.2 1.1c.2.5 1 .9 2.4 1.7.3.2.6.3.9.5l.3-.5c.1-.1.2-.1.3 0 .1.1.2.2.2.3l-.7 1.5c-.1.1-.2.1-.3 0-.1-.1-.2-.2-.2-.3l.3-.6c-.4-.2-.7-.4-1-.5-.3-.1-.5-.3-.7-.4-.4-.2-.7-.4-1-.6-.5.8-.8 1.2-.9 2v.3c.1.4.5.6.6.7l2.7 1.5c.1 0 .5.3 1 .1h.1c.4-.8 1.9-3.4 2.4-4.3 0 0 .1-.2.1-.5 0-.1-.1-.2-.3-.3l-1.1-.6c-.1-.1-.2-.2-.1-.3.1-.1.2-.1.3-.1l1.1.6c.3.1.5.3.5.5.1.4-.1.9-.1.9-.7 1.2-1.5 2.7-2.1 3.7l.2.1s.4.2.9.1c.1 0 .2-.1.3-.1.4-.8 2-3.7 2.6-4.7 0 0 .2-.3.1-.5 0-.1-.1-.3-.3-.4l-1.1-.6c-.1-.1-.2-.2-.1-.3.1-.1.2-.1.3-.1l1.1.6c.3.1.5.3.5.5.1.4-.2 1-.2 1-.7 1.3-1.6 2.9-2.3 4.1l.2.1s.1-.1.1 0c.2.1.5.2 1 .1s.8-.7.9-.7l1.9-3.5c.1-.1.3-.6.2-1.1 0-.3-.2-.7-.6-1l-7.8-4.2c-.2-.1-1.1-.7-2.3-.4-1.2.3-1.6.9-2 1.6v.1c-.4.7-.9 1.4-1.3 1.8-.4.4-1.8 1.8-3.5 2.6l-3 1.5c-.8.4-1.6.8-2.1 1.1-1.2.6-3.3 2-5 3.7-1.3 1.3-2.6 3.2-3.5 5.5-.6 1.6-1 4-1.1 4.1v.1l.2.1c0 .1 1.1 1.7 4.1 4.5 2.4 5.3 6 8.4 9.4 10.2 2.1 1.1 4.1 1.8 5.7 2.1.5 1.8 1.8 5.9 3.8 8.1 1.1 6 7.1 20.9 9.9 24.6 2.8 3.7 25 7.3 24.6.6-.4-6.8-3-10.4-3-10.4s2-1.3.7-5.4c3.7-3 5.5-7.9 5.5-7.9.1 0 3.6 1.8 8.6 1.9 3.8.1 8.5-.8 13.2-4.3 3.9-.9 5.7-1.9 5.7-1.9h.2l.1-.1c0-.1.9-2.3 1.1-4 .5-2.5.3-4.7-.2-6.6zM11.5 31.7c-.1-.1-.2-.2-.1-.3 0-.1.1-.2.3-.1 2.5.7 4-1.6 4.6-2.5.1-.1.1-.2.1-.2.4-.6 4-6.9 4-6.9.1-.1.2-.1.3-.1.1.1.1.2.1.3-.1.3-3.6 6.4-4.1 7 0 0-.1.1-.1.2-.6.8-2.4 3.4-5.1 2.6zm13.9 12.5c-1.9 0-3.5-.5-4.8-1.2-3.8-2-5.4-6-5.4-6 0-.1 0-.2.1-.3.1 0 .2 0 .3.1 0 .1 2.9 7 9.9 7 .1 0 .2.1.2.2-.1.1-.2.2-.3.2zm10.9 10.3h-.1c-.1 0-.1 0-.2-.1-3.1-5.4-8.3-6.2-8.3-6.2-.1 0-.2-.1-.2-.2s.1-.2.2-.2 5.4.9 8.6 6.4c.2.1.1.2 0 .3zm21.3 14.4c-1.5-.1-3 .1-4.8.6-.1 1.2-.3 2.5-.6 3.5 2-.5 3.7-.6 4.9-.3.1 0 .2.2.1.3 0 .1-.2.2-.3.1-1.1-.3-2.7-.2-4.7.3 3 3.4 2.8 5.6 2.8 5.7 0 .1-.1 0-.2 0s-.2.1-.2 0c0 0 .2-2.3-2.9-5.7-1.6-.8-5.6-.6-5.7-.6-.1 0-.2-.1-.2-.2s.1-.2.2-.2c.2 0 3.9-.1 5.7.6.3-1 .5-2.3.6-3.5-1.6-.8-6.2-1.2-6.3-1.2-.1 0-.2-.1-.2-.2s.1-.2.2-.2c.2 0 4.5.4 6.3 1.2.2-2 .2-3.7.2-3.7 0-.1.1-.2.2-.2s.2.1.2.2 0 1.8-.2 3.7c1.8-.5 3.3-.7 4.8-.5.1 0 .2.1.2.2.1 0 0 .1-.1.1zm3.3-6.6h-.6c-3.3 0-5.4-1.5-5.5-1.6h-.1l-.9-2.7-1.8 2.8h-.1c-.4.1-10.2 2.6-13.8-2.8-.1-.1 0-.2.1-.3.1-.1.2 0 .3.1 3.3 4.9 12.3 2.9 13.3 2.6l1.9-3c1.1-4.7.1-10.7-.4-11.9-1.1-1-5.6-3.1-5.6-3.1-.1-.1-.2-.2-.1-.3 0-.1.2-.1.3-.1.2.1 3.6 1.7 5.2 2.8-.2-1.1.2-2.2.2-2.2 0-.1.2-.2.3-.1.1 0 .2.2.1.3 0 0-.5 1.3-.1 2.4.4-.1.9-.3 1.4-.4 1.4-.5 2.9-.9 4.3-.7.1 0 .2.1.2.3 0 .1-.1.2-.3.2-1.3-.3-2.7.2-4.1.7-.4.1-.9.3-1.3.4.6 1.6 1.5 7.5.4 12l1 2.9c.4.2 2.6 1.6 5.8 1.4.1 0 .2.1.2.2-.1 0-.2.1-.3.1zM83.5 54s-3.4 2.7-7.7 2.6c-1.5 0-3.2-.4-4.8-1.4-.1-.1-.1-.2-.1-.3.1-.1.2-.1.3-.1 6 3.5 12-1.1 12-1.2.1-.1.2-.1.3 0 .1.2.1.3 0 .4zm6-3c0 .1-.1.2-.2.2-2.8-.7-3-3.8-3.1-4.8v-.2c-.2-.8-.2-7.9-.2-8.2 0-.1.1-.2.2-.2s.2.1.2.2 0 7.3.1 8v.3c.1 1 .3 3.8 2.8 4.4.2 0 .2.2.2.3z"></path></g><!----></svg>