<svg data-v-423bf9ae="" xmlns="http://www.w3.org/2000/svg" viewBox="0 0 473.29979546853133 60" class="font"><!----><!----><!----><g data-v-423bf9ae="" id="03e641b9-72e1-40d7-a73f-51e061b66a6b" fill="black" transform="matrix(6.036216979508284,0,0,6.036216979508284,-2.535204774905395,-15.211266196392017)"><path d="M3.74 12.46L3.74 12.46Q2.83 12.46 2.07 12.12L2.07 12.12L2.07 12.12Q1.32 11.77 0.87 11.10L0.87 11.10L0.87 11.10Q0.42 10.43 0.42 9.48L0.42 9.48L0.43 9.17L2.30 9.17L2.28 9.39L2.28 9.39Q2.28 10.09 2.69 10.51L2.69 10.51L2.69 10.51Q3.09 10.92 3.82 10.92L3.82 10.92L3.82 10.92Q4.56 10.92 4.92 10.59L4.92 10.59L4.92 10.59Q5.28 10.26 5.28 9.79L5.28 9.79L5.28 9.79Q5.28 9.31 5.03 9.01L5.03 9.01L5.03 9.01Q4.77 8.71 4.40 8.54L4.40 8.54L4.40 8.54Q4.03 8.37 3.36 8.15L3.36 8.15L3.36 8.15Q2.48 7.87 1.93 7.59L1.93 7.59L1.93 7.59Q1.39 7.31 1.00 6.73L1.00 6.73L1.00 6.73Q0.62 6.16 0.62 5.21L0.62 5.21L0.62 5.21Q0.62 4.34 1.05 3.73L1.05 3.73L1.05 3.73Q1.48 3.12 2.21 2.82L2.21 2.82L2.21 2.82Q2.94 2.52 3.82 2.52L3.82 2.52L3.82 2.52Q5.19 2.52 6.07 3.23L6.07 3.23L6.07 3.23Q6.94 3.93 6.94 5.35L6.94 5.35L6.94 5.52L5.11 5.52L5.11 5.39L5.11 5.39Q5.11 4.77 4.76 4.42L4.76 4.42L4.76 4.42Q4.41 4.06 3.81 4.06L3.81 4.06L3.81 4.06Q3.18 4.06 2.82 4.35L2.82 4.35L2.82 4.35Q2.46 4.63 2.46 5.08L2.46 5.08L2.46 5.08Q2.46 5.47 2.70 5.73L2.70 5.73L2.70 5.73Q2.94 5.98 3.30 6.13L3.30 6.13L3.30 6.13Q3.65 6.29 4.28 6.48L4.28 6.48L4.28 6.48Q5.19 6.78 5.75 7.05L5.75 7.05L5.75 7.05Q6.31 7.32 6.72 7.90L6.72 7.90L6.72 7.90Q7.13 8.47 7.13 9.41L7.13 9.41L7.13 9.41Q7.13 10.99 6.22 11.72L6.22 11.72L6.22 11.72Q5.32 12.46 3.74 12.46L3.74 12.46ZM8.50 12.29L8.50 2.69L14.62 2.69L14.62 4.28L10.29 4.28L10.29 6.58L14 6.58L14 8.18L10.29 8.18L10.29 10.70L14.70 10.70L14.70 12.29L8.50 12.29ZM17.93 12.29L17.93 4.28L15.55 4.28L15.55 2.69L22.11 2.69L22.11 4.28L19.73 4.28L19.73 12.29L17.93 12.29ZM26.63 12.46L26.63 12.46Q24.78 12.46 23.79 11.22L23.79 11.22L23.79 11.22Q22.81 9.98 22.81 7.49L22.81 7.49L22.81 7.49Q22.81 5.00 23.79 3.76L23.79 3.76L23.79 3.76Q24.78 2.52 26.63 2.52L26.63 2.52L26.63 2.52Q28.21 2.52 29.18 3.46L29.18 3.46L29.18 3.46Q30.16 4.40 30.16 6.26L30.16 6.26L28.32 6.26L28.32 6.26Q28.32 5.18 27.87 4.62L27.87 4.62L27.87 4.62Q27.41 4.06 26.63 4.06L26.63 4.06L26.63 4.06Q25.65 4.06 25.15 4.86L25.15 4.86L25.15 4.86Q24.65 5.67 24.65 7.14L24.65 7.14L24.65 7.84L24.65 7.84Q24.65 9.31 25.17 10.12L25.17 10.12L25.17 10.12Q25.68 10.92 26.68 10.92L26.68 10.92L26.68 10.92Q27.48 10.92 27.94 10.37L27.94 10.37L27.94 10.37Q28.41 9.81 28.41 8.74L28.41 8.74L30.16 8.74L30.16 8.74Q30.16 10.56 29.19 11.51L29.19 11.51L29.19 11.51Q28.22 12.46 26.63 12.46L26.63 12.46ZM35.08 12.46L35.08 12.46Q33.18 12.46 32.14 11.22L32.14 11.22L32.14 11.22Q31.09 9.98 31.09 7.49L31.09 7.49L31.09 7.49Q31.09 5.00 32.14 3.76L32.14 3.76L32.14 3.76Q33.18 2.52 35.08 2.52L35.08 2.52L35.08 2.52Q36.99 2.52 38.03 3.76L38.03 3.76L38.03 3.76Q39.07 5.00 39.07 7.49L39.07 7.49L39.07 7.49Q39.07 9.98 38.03 11.22L38.03 11.22L38.03 11.22Q36.99 12.46 35.08 12.46L35.08 12.46ZM35.08 10.92L35.08 10.92Q36.13 10.92 36.68 10.12L36.68 10.12L36.68 10.12Q37.23 9.31 37.23 7.84L37.23 7.84L37.23 7.14L37.23 7.14Q37.23 5.67 36.68 4.86L36.68 4.86L36.68 4.86Q36.13 4.06 35.08 4.06L35.08 4.06L35.08 4.06Q34.03 4.06 33.49 4.86L33.49 4.86L33.49 4.86Q32.94 5.67 32.94 7.14L32.94 7.14L32.94 7.84L32.94 7.84Q32.94 9.31 33.49 10.12L33.49 10.12L33.49 10.12Q34.03 10.92 35.08 10.92L35.08 10.92ZM43.69 12.46L43.69 12.46Q42.13 12.46 41.27 11.64L41.27 11.64L41.27 11.64Q40.40 10.82 40.40 9.28L40.40 9.28L40.40 2.69L42.20 2.69L42.20 9.23L42.20 9.23Q42.20 10.05 42.59 10.49L42.59 10.49L42.59 10.49Q42.98 10.92 43.69 10.92L43.69 10.92L43.69 10.92Q44.41 10.92 44.81 10.49L44.81 10.49L44.81 10.49Q45.21 10.05 45.21 9.23L45.21 9.23L45.21 2.69L47.00 2.69L47.00 9.28L47.00 9.28Q47.00 10.82 46.13 11.64L46.13 11.64L46.13 11.64Q45.26 12.46 43.69 12.46L43.69 12.46ZM48.68 12.29L48.68 2.69L50.26 2.69L53.23 7.98L53.23 7.98Q53.33 8.13 53.47 8.45L53.47 8.45L53.47 8.45Q53.62 8.76 53.66 8.88L53.66 8.88L53.70 8.83L53.69 8.04L53.69 2.69L55.29 2.69L55.29 12.29L53.69 12.29L50.72 7L50.72 7Q50.61 6.78 50.48 6.50L50.48 6.50L50.48 6.50Q50.34 6.22 50.29 6.10L50.29 6.10L50.23 6.15L50.23 6.15Q50.23 6.23 50.25 6.47L50.25 6.47L50.25 6.47Q50.26 6.71 50.26 6.94L50.26 6.94L50.26 12.29L48.68 12.29ZM58.74 12.29L58.74 4.28L56.36 4.28L56.36 2.69L62.92 2.69L62.92 4.28L60.54 4.28L60.54 12.29L58.74 12.29ZM63.98 12.29L63.98 2.69L70.10 2.69L70.10 4.28L65.77 4.28L65.77 6.58L69.48 6.58L69.48 8.18L65.77 8.18L65.77 10.70L70.18 10.70L70.18 12.29L63.98 12.29ZM71.64 12.29L71.64 2.69L75.66 2.69L75.66 2.69Q77.07 2.69 77.83 3.44L77.83 3.44L77.83 3.44Q78.60 4.20 78.60 5.43L78.60 5.43L78.60 5.43Q78.60 6.30 78.17 6.94L78.17 6.94L78.17 6.94Q77.74 7.59 76.99 7.90L76.99 7.90L78.83 12.29L76.89 12.29L75.29 8.29L73.43 8.29L73.43 12.29L71.64 12.29ZM73.43 6.71L75.40 6.71L75.40 6.71Q76.03 6.71 76.35 6.38L76.35 6.38L76.35 6.38Q76.66 6.05 76.66 5.43L76.66 5.43L76.66 5.43Q76.66 4.89 76.37 4.58L76.37 4.58L76.37 4.58Q76.08 4.28 75.47 4.28L75.47 4.28L73.43 4.28L73.43 6.71Z"></path></g><!----><!----></svg>